<svg width="31" height="31" viewBox="0 0 31 31" fill="none" xmlns="http://www.w3.org/2000/svg">
<path d="M19.3572 15.85L30.0534 5.17863C30.5219 4.71022 30.785 4.07493 30.785 3.4125C30.785 2.75008 30.5219 2.11478 30.0534 1.64638C29.585 1.17797 28.9497 0.914825 28.2873 0.914825C27.6249 0.914825 26.9896 1.17797 26.5212 1.64638L15.8498 12.3426L5.17845 1.64638C4.71004 1.17797 4.07475 0.914825 3.41232 0.914825C2.7499 0.914825 2.1146 1.17797 1.6462 1.64638C1.17779 2.11478 0.914646 2.75008 0.914646 3.4125C0.914646 4.07493 1.17779 4.71022 1.6462 5.17863L12.3424 15.85L1.6462 26.5214C1.41305 26.7526 1.22799 27.0277 1.10171 27.3309C0.97542 27.634 0.9104 27.9591 0.9104 28.2875C0.9104 28.6159 0.97542 28.941 1.10171 29.2441C1.22799 29.5473 1.41305 29.8224 1.6462 30.0536C1.87744 30.2868 2.15256 30.4718 2.45569 30.5981C2.75881 30.7244 3.08394 30.7894 3.41232 30.7894C3.7407 30.7894 4.06583 30.7244 4.36896 30.5981C4.67208 30.4718 4.9472 30.2868 5.17845 30.0536L15.8498 19.3574L26.5212 30.0536C26.7524 30.2868 27.0276 30.4718 27.3307 30.5981C27.6338 30.7244 27.9589 30.7894 28.2873 30.7894C28.6157 30.7894 28.9408 30.7244 29.244 30.5981C29.5471 30.4718 29.8222 30.2868 30.0534 30.0536C30.2866 29.8224 30.4717 29.5473 30.5979 29.2441C30.7242 28.941 30.7892 28.6159 30.7892 28.2875C30.7892 27.9591 30.7242 27.634 30.5979 27.3309C30.4717 27.0277 30.2866 26.7526 30.0534 26.5214L19.3572 15.85Z" fill="#FDF9EB"/>
</svg>
